<svg width="577" height="550" viewBox="0 0 577 550" fill="none" xmlns="http://www.w3.org/2000/svg">
<path opacity="0.38" fill-rule="evenodd" clip-rule="evenodd" d="M556.564 284.636C557.886 348.423 597.044 417.069 563.37 471.23C529.514 525.684 455.93 539.424 392.517 548.491C336.946 556.437 285.728 530.997 230.939 518.763C168.454 504.81 94.2182 517.796 49.5187 471.901C3.53949 424.692 -5.75103 350.008 2.91199 284.636C10.977 223.776 55.209 177.193 94.7864 130.306C131.35 86.9904 170.07 45.9522 222.499 24.4944C278.024 1.76924 338.763 -7.28858 397.13 6.56394C458.928 21.231 524.126 48.432 555.749 103.587C586.509 157.237 555.282 222.785 556.564 284.636Z" fill="#003968"/>
</svg>
