<svg width="24" height="24" viewBox="0 0 24 24" fill="none" xmlns="http://www.w3.org/2000/svg">
<path d="M3 7C3 5.93913 3.42143 4.92172 4.17157 4.17157C4.92172 3.42143 5.93913 3 7 3H17C18.0609 3 19.0783 3.42143 19.8284 4.17157C20.5786 4.92172 21 5.93913 21 7V17C21 18.0609 20.5786 19.0783 19.8284 19.8284C19.0783 20.5786 18.0609 21 17 21H7C5.93913 21 4.92172 20.5786 4.17157 19.8284C3.42143 19.0783 3 18.0609 3 17V7Z" stroke="#9398A6" stroke-width="1.5" stroke-linecap="round" stroke-linejoin="round"/>
<path d="M8.5 10.6667V13.3333H10.4091V18H12.9545V13.3333H14.8636L15.5 10.6667H12.9545V9.33333C12.9545 9.15652 13.0216 8.98695 13.1409 8.86193C13.2603 8.7369 13.4221 8.66667 13.5909 8.66667H15.5V6H13.5909C12.747 6 11.9377 6.35119 11.341 6.97631C10.7443 7.60143 10.4091 8.44928 10.4091 9.33333V10.6667H8.5Z" stroke="#9398A6" stroke-width="1.5" stroke-linecap="round" stroke-linejoin="round"/>
</svg>
