<svg width="15" height="15" viewBox="0 0 15 15" fill="none" xmlns="http://www.w3.org/2000/svg">
<path d="M7.425 5.7125C8.225 5.75 8.43125 6.43125 8.44375 6.75H9.5625C9.5125 5.5125 8.63125 4.75625 7.40625 4.75625C6.025 4.75625 5 5.625 5 7.5875C5 8.8 5.58125 10.2375 7.4 10.2375C8.7875 10.2375 9.53125 9.20625 9.55 8.39375H8.43125C8.4125 8.7625 8.15 9.25625 7.4125 9.29375C6.59375 9.26875 6.25 8.63125 6.25 7.5875C6.25 5.78125 7.05 5.725 7.425 5.7125ZM7.5 1.25C4.05 1.25 1.25 4.05 1.25 7.5C1.25 10.95 4.05 13.75 7.5 13.75C10.95 13.75 13.75 10.95 13.75 7.5C13.75 4.05 10.95 1.25 7.5 1.25ZM7.5 12.5C4.74375 12.5 2.5 10.2563 2.5 7.5C2.5 4.74375 4.74375 2.5 7.5 2.5C10.2563 2.5 12.5 4.74375 12.5 7.5C12.5 10.2563 10.2563 12.5 7.5 12.5Z" fill="#9398A6"/>
</svg>
