<svg width="63" height="63" viewBox="0 0 63 63" fill="none" xmlns="http://www.w3.org/2000/svg">
<path d="M31.5 39.375C35.8492 39.375 39.375 35.8492 39.375 31.5C39.375 27.1508 35.8492 23.625 31.5 23.625C27.1508 23.625 23.625 27.1508 23.625 31.5C23.625 35.8492 27.1508 39.375 31.5 39.375Z" stroke="#003968" stroke-width="3"/>
<path d="M36.1331 5.649C35.1697 5.25 33.9465 5.25 31.5 5.25C29.0535 5.25 27.8302 5.25 26.8668 5.649C26.2294 5.91285 25.6503 6.29973 25.1625 6.78752C24.6747 7.27532 24.2878 7.85447 24.024 8.49187C23.7825 9.07725 23.6853 9.76238 23.6486 10.7573C23.6315 11.4763 23.4323 12.1793 23.0696 12.8004C22.7069 13.4216 22.1926 13.9406 21.5748 14.3089C20.947 14.66 20.2403 14.8461 19.5209 14.8498C18.8015 14.8535 18.0929 14.6746 17.4615 14.3299C16.5795 13.8626 15.9416 13.6054 15.309 13.5214C13.929 13.3399 12.5335 13.7138 11.4292 14.5609C10.605 15.1987 9.99071 16.2566 8.76746 18.375C7.54421 20.4934 6.92996 21.5512 6.79609 22.5881C6.70588 23.2718 6.75125 23.9666 6.92961 24.6327C7.10797 25.2989 7.41583 25.9234 7.83559 26.4705C8.22409 26.9745 8.76746 27.3971 9.61009 27.9274C10.8517 28.707 11.6497 30.0352 11.6497 31.5C11.6497 32.9648 10.8517 34.293 9.61009 35.07C8.76746 35.6029 8.22146 36.0255 7.83559 36.5295C7.41583 37.0766 7.10797 37.7011 6.92961 38.3673C6.75125 39.0334 6.70588 39.7282 6.79609 40.4119C6.93259 41.4461 7.54421 42.5066 8.76484 44.625C9.99071 46.7434 10.6023 47.8012 11.4292 48.4391C11.9764 48.8589 12.6008 49.1667 13.267 49.3451C13.9331 49.5235 14.6279 49.5688 15.3116 49.4786C15.9416 49.3946 16.5795 49.1374 17.4615 48.6701C18.0929 48.3254 18.8015 48.1465 19.5209 48.1502C20.2403 48.1539 20.947 48.34 21.5748 48.6911C22.8427 49.4261 23.5961 50.778 23.6486 52.2428C23.6853 53.2403 23.7798 53.9227 24.024 54.5081C24.2878 55.1455 24.6747 55.7247 25.1625 56.2125C25.6503 56.7003 26.2294 57.0872 26.8668 57.351C27.8302 57.75 29.0535 57.75 31.5 57.75C33.9465 57.75 35.1697 57.75 36.1331 57.351C36.7705 57.0872 37.3496 56.7003 37.8374 56.2125C38.3252 55.7247 38.7121 55.1455 38.976 54.5081C39.2175 53.9227 39.3146 53.2403 39.3513 52.2428C39.4038 50.778 40.1572 49.4235 41.4251 48.6911C42.053 48.34 42.7597 48.1539 43.4791 48.1502C44.1985 48.1465 44.907 48.3254 45.5385 48.6701C46.4205 49.1374 47.0583 49.3946 47.6883 49.4786C48.372 49.5688 49.0668 49.5235 49.7329 49.3451C50.3991 49.1667 51.0236 48.8589 51.5707 48.4391C52.3976 47.8039 53.0092 46.7434 54.2325 44.625C55.4557 42.5066 56.07 41.4488 56.2038 40.4119C56.294 39.7282 56.2487 39.0334 56.0703 38.3673C55.892 37.7011 55.5841 37.0766 55.1643 36.5295C54.7758 36.0255 54.2325 35.6029 53.3898 35.0726C52.7754 34.6983 52.266 34.1742 51.9093 33.5494C51.5525 32.9245 51.3602 32.2194 51.3502 31.5C51.3502 30.0352 52.1482 28.707 53.3898 27.93C54.2325 27.3971 54.7785 26.9745 55.1643 26.4705C55.5841 25.9234 55.892 25.2989 56.0703 24.6327C56.2487 23.9666 56.294 23.2718 56.2038 22.5881C56.0673 21.5539 55.4557 20.4934 54.2351 18.375C53.0092 16.2566 52.3976 15.1987 51.5707 14.5609C51.0236 14.1411 50.3991 13.8333 49.7329 13.6549C49.0668 13.4765 48.372 13.4312 47.6883 13.5214C47.0583 13.6054 46.4205 13.8626 45.5358 14.3299C44.9047 14.6741 44.1966 14.8528 43.4778 14.8491C42.7589 14.8454 42.0526 14.6596 41.4251 14.3089C40.8073 13.9406 40.293 13.4216 39.9303 12.8004C39.5676 12.1793 39.3684 11.4763 39.3513 10.7573C39.3146 9.75975 39.2201 9.07725 38.976 8.49187C38.7121 7.85447 38.3252 7.27532 37.8374 6.78752C37.3496 6.29973 36.7705 5.91285 36.1331 5.649Z" stroke="#003968" stroke-width="3"/>
</svg>
