<svg width="62" height="62" viewBox="0 0 62 62" fill="none" xmlns="http://www.w3.org/2000/svg">
<g clip-path="url(#clip0_663_5219)">
<path d="M48.667 15.5007V46.5006C48.667 47.8709 48.1227 49.1851 47.1537 50.154C46.1848 51.123 44.8707 51.6673 43.5004 51.6673H17.667C16.2967 51.6673 14.9826 51.123 14.0136 50.154C13.0447 49.1851 12.5004 47.8709 12.5004 46.5006V15.5007C12.5004 14.1304 13.0447 12.8162 14.0136 11.8473C14.9826 10.8783 16.2967 10.334 17.667 10.334H43.5004C44.8707 10.334 46.1848 10.8783 47.1537 11.8473C48.1227 12.8162 48.667 14.1304 48.667 15.5007Z" stroke="#D4AF37" stroke-width="3.5" stroke-linecap="round" stroke-linejoin="round"/>
<path d="M22.8346 41.334H38.3346" stroke="#D4AF37" stroke-width="3.5" stroke-linecap="round" stroke-linejoin="round"/>
<path d="M25.4163 28.4167C25.4163 29.787 25.9606 31.1011 26.9295 32.07C27.8985 33.039 29.2126 33.5833 30.5829 33.5833C31.9532 33.5833 33.2674 33.039 34.2363 32.07C35.2052 31.1011 35.7496 29.787 35.7496 28.4167C35.7496 27.0464 35.2052 25.7322 34.2363 24.7633C33.2674 23.7943 31.9532 23.25 30.5829 23.25C29.2126 23.25 27.8985 23.7943 26.9295 24.7633C25.9606 25.7322 25.4163 27.0464 25.4163 28.4167Z" stroke="#D4AF37" stroke-width="3.5" stroke-linecap="round" stroke-linejoin="round"/>
<path d="M7.33459 20.667H15.0846" stroke="#D4AF37" stroke-width="3.5" stroke-linecap="round" stroke-linejoin="round"/>
<path d="M7.33459 31H15.0846" stroke="#D4AF37" stroke-width="3.5" stroke-linecap="round" stroke-linejoin="round"/>
<path d="M7.33459 41.334H15.0846" stroke="#D4AF37" stroke-width="3.5" stroke-linecap="round" stroke-linejoin="round"/>
</g>
<defs>
<clipPath id="clip0_663_5219">
<rect width="62" height="62" fill="white"/>
</clipPath>
</defs>
</svg>
