<svg width="63" height="65" viewBox="0 0 63 65" fill="none" xmlns="http://www.w3.org/2000/svg">
<path d="M37.2857 1.5V13.8429C37.2857 14.6612 37.6108 15.4461 38.1895 16.0248C38.7682 16.6035 39.553 16.9286 40.3714 16.9286H52.7143" stroke="#003968" stroke-width="3" stroke-linecap="round" stroke-linejoin="round"/>
<path d="M22.4083 19.9286H25.4389M22.4083 32.2143H40.5919M22.4083 44.5H40.5919M46.6532 56.7857H16.3471C14.7395 56.7857 13.1978 56.1385 12.0611 54.9865C10.9244 53.8345 10.2858 52.272 10.2858 50.6429V7.64286C10.2858 6.01367 10.9244 4.45121 12.0611 3.2992C13.1978 2.14719 14.7395 1.5 16.3471 1.5H37.5613L52.7144 16.8571V50.6429C52.7144 52.272 52.0758 53.8345 50.9391 54.9865C49.8024 56.1385 48.2607 56.7857 46.6532 56.7857Z" stroke="#003968" stroke-width="3" stroke-linecap="round" stroke-linejoin="round"/>
</svg>
