<svg width="68" height="55" viewBox="0 0 68 55" fill="none" xmlns="http://www.w3.org/2000/svg">
<g clip-path="url(#clip0_663_5234)">
<path d="M16.5833 10.8333H24.3333C25.0185 10.8333 25.6756 10.5612 26.16 10.0767C26.6445 9.59222 26.9167 8.93514 26.9167 8.25V5.66667C26.9167 4.29638 27.461 2.98222 28.43 2.01328C29.3989 1.04434 30.713 0.5 32.0833 0.5C33.4536 0.5 34.7678 1.04434 35.7367 2.01328C36.7057 2.98222 37.25 4.29638 37.25 5.66667V8.25C37.25 8.93514 37.5222 9.59222 38.0066 10.0767C38.4911 10.5612 39.1482 10.8333 39.8333 10.8333H47.5833C48.2685 10.8333 48.9256 11.1055 49.41 11.59C49.8945 12.0744 50.1667 12.7315 50.1667 13.4167V21.1667C50.1667 21.8518 50.4388 22.5089 50.9233 22.9934C51.4078 23.4778 52.0649 23.75 52.75 23.75H55.3333C56.7036 23.75 58.0178 24.2943 58.9867 25.2633C59.9557 26.2322 60.5 27.5464 60.5 28.9167C60.5 30.287 59.9557 31.6011 58.9867 32.5701C58.0178 33.539 56.7036 34.0833 55.3333 34.0833H52.75C52.0649 34.0833 51.4078 34.3555 50.9233 34.84C50.4388 35.3244 50.1667 35.9815 50.1667 36.6667V44.4167C50.1667 45.1018 49.8945 45.7589 49.41 46.2434C48.9256 46.7278 48.2685 47 47.5833 47H39.8333C39.1482 47 38.4911 46.7278 38.0066 46.2434C37.5222 45.7589 37.25 45.1018 37.25 44.4167V41.8333C37.25 40.4631 36.7057 39.1489 35.7367 38.18C34.7678 37.211 33.4536 36.6667 32.0833 36.6667C30.713 36.6667 29.3989 37.211 28.43 38.18C27.461 39.1489 26.9167 40.4631 26.9167 41.8333V44.4167C26.9167 45.1018 26.6445 45.7589 26.16 46.2434C25.6756 46.7278 25.0185 47 24.3333 47H16.5833C15.8982 47 15.2411 46.7278 14.7566 46.2434C14.2722 45.7589 14 45.1018 14 44.4167V36.6667C14 35.9815 14.2722 35.3244 14.7566 34.84C15.2411 34.3555 15.8982 34.0833 16.5833 34.0833H19.1667C20.537 34.0833 21.8511 33.539 22.8201 32.5701C23.789 31.6011 24.3333 30.287 24.3333 28.9167C24.3333 27.5464 23.789 26.2322 22.8201 25.2633C21.8511 24.2943 20.537 23.75 19.1667 23.75H16.5833C15.8982 23.75 15.2411 23.4778 14.7566 22.9934C14.2722 22.5089 14 21.8518 14 21.1667V13.4167C14 12.7315 14.2722 12.0744 14.7566 11.59C15.2411 11.1055 15.8982 10.8333 16.5833 10.8333Z" stroke="#D4AF37" stroke-width="2.34615" stroke-linecap="round" stroke-linejoin="round"/>
</g>
<defs>
<clipPath id="clip0_663_5234">
<rect width="68" height="55" fill="white"/>
</clipPath>
</defs>
</svg>
