<svg width="50" height="50" viewBox="0 0 50 50" fill="none" xmlns="http://www.w3.org/2000/svg">
<g clip-path="url(#clip0_663_5164)">
<path d="M10.9875 19.792C13.1507 19.792 15.2654 20.4335 17.0641 21.6353C18.8627 22.8371 20.2646 24.5453 21.0924 26.5439C21.9203 28.5425 22.1369 30.7416 21.7148 32.8633C21.2928 34.985 20.2511 36.9338 18.7215 38.4635C17.1918 39.9931 15.243 41.0348 13.1213 41.4568C10.9996 41.8789 8.80047 41.6623 6.8019 40.8344C4.80333 40.0066 3.09513 38.6047 1.8933 36.806C0.691473 35.0074 0.05 32.8927 0.05 30.7295L0 29.167C0 23.3654 2.30468 17.8014 6.40704 13.699C10.5094 9.59667 16.0734 7.29199 21.875 7.29199V13.542C19.8222 13.5365 17.7887 13.938 15.892 14.7232C13.9953 15.5085 12.2731 16.662 10.825 18.117C10.2622 18.6788 9.74296 19.2826 9.27188 19.9232C9.83125 19.8357 10.4031 19.7889 10.9844 19.7889L10.9875 19.792ZM39.1125 19.792C41.2757 19.792 43.3904 20.4335 45.1891 21.6353C46.9877 22.8371 48.3896 24.5453 49.2174 26.5439C50.0453 28.5425 50.2619 30.7416 49.8398 32.8633C49.4178 34.985 48.3761 36.9338 46.8465 38.4635C45.3168 39.9931 43.368 41.0348 41.2463 41.4568C39.1246 41.8789 36.9255 41.6623 34.9269 40.8344C32.9283 40.0066 31.2201 38.6047 30.0183 36.806C28.8165 35.0074 28.175 32.8927 28.175 30.7295L28.125 29.167C28.125 23.3654 30.4297 17.8014 34.532 13.699C38.6344 9.59667 44.1984 7.29199 50 7.29199V13.542C47.9472 13.5365 45.9137 13.938 44.017 14.7232C42.1203 15.5085 40.3981 16.662 38.95 18.117C38.3872 18.6788 37.868 19.2826 37.3969 19.9232C37.9563 19.8357 38.5281 19.7889 39.1125 19.7889V19.792Z" fill="#003968"/>
</g>
<defs>
<clipPath id="clip0_663_5164">
<rect width="50" height="50" fill="white"/>
</clipPath>
</defs>
</svg>
