<svg width="16" height="16" viewBox="0 0 16 16" fill="none" xmlns="http://www.w3.org/2000/svg">
<path d="M8.00243 6.84617L3.69264 11.3291C3.57425 11.4526 3.41597 11.5205 3.2472 11.5205C3.07833 11.5205 2.92014 11.4526 2.80157 11.3291L2.42412 10.9363C2.30537 10.8131 2.23999 10.6483 2.23999 10.4728C2.23999 10.2972 2.30537 10.1326 2.42412 10.0093L7.5553 4.67162C7.67425 4.54779 7.83318 4.47998 8.00214 4.48047C8.17185 4.47998 8.33061 4.54769 8.44965 4.67162L13.5759 10.0043C13.6946 10.1277 13.76 10.2922 13.76 10.4679C13.76 10.6434 13.6946 10.808 13.5759 10.9314L13.1984 11.3242C12.9527 11.5797 12.5528 11.5797 12.3073 11.3242L8.00243 6.84617Z" fill="#003968"/>
</svg>
