<svg width="16" height="16" viewBox="0 0 16 16" fill="none" xmlns="http://www.w3.org/2000/svg">
<path d="M7.99757 9.15383L12.3074 4.67088C12.4257 4.54744 12.584 4.47953 12.7528 4.47953C12.9217 4.47953 13.0799 4.54744 13.1984 4.67088L13.5759 5.0637C13.6946 5.18694 13.76 5.35169 13.76 5.52725C13.76 5.70281 13.6946 5.86736 13.5759 5.9907L8.4447 11.3284C8.32575 11.4522 8.16682 11.52 7.99786 11.5195C7.82815 11.52 7.6694 11.4523 7.55036 11.3284L2.42414 5.99568C2.30538 5.87233 2.24001 5.70778 2.24001 5.53212C2.24001 5.35656 2.30538 5.19201 2.42414 5.06857L2.80159 4.67585C3.04725 4.4203 3.44717 4.4203 3.69275 4.67585L7.99757 9.15383Z" fill="#003968"/>
</svg>
